<svg width="251" height="251" viewBox="0 0 251 251" fill="none" xmlns="http://www.w3.org/2000/svg">
<path d="M209.151 73.085C201.064 51.6907 176.477 39.8556 155.173 49.2668C128.546 61.0297 134.933 90.5268 121.52 111.355C121.291 109.929 121.062 108.503 120.8 107.085C116.804 85.4419 102.696 62.681 77.5407 66.9413C23.1624 76.1513 30.2982 169.605 59.2169 200.508C60.3794 202.907 63.0418 204.068 65.8395 203.193C68.6568 202.313 70.219 199.963 71.1992 197.342C72.4943 200.745 74.7851 203.691 78.9199 203.336C82.6368 203.016 84.6106 200.39 85.6414 197.265C86.3103 199.914 88.2056 202.099 91.3693 202.625C95.6352 203.335 98.4603 200.601 100.403 197.249C101.146 199.56 102.571 201.565 105.038 202.477C108.622 203.803 112.495 202.138 113.719 198.58C113.785 198.387 113.805 198.202 113.789 198.028C115.851 192.521 117.6 186.899 119.015 181.182C119.186 181.255 119.369 181.318 119.587 181.331C146.433 182.846 178.129 168.016 194.28 146.436C208.652 127.232 217.972 96.4237 209.151 73.085ZM110.157 198.243C110.104 198.378 110.112 198.494 110.095 198.619C108.044 200.457 104.743 199.394 103.44 196.59C102.727 195.055 102.676 193.432 102.758 191.764C102.847 190.001 100.353 189.846 99.8234 191.366C99.0416 193.611 98.2015 196.299 96.4682 198.014C92.2976 202.139 86.2977 198.74 87.5044 192.236C87.6236 191.594 87.1293 191.246 86.6476 191.268C86.6511 191.193 86.6609 191.112 86.663 191.038C86.7303 189.169 83.9263 189.21 83.7833 191.038C83.4768 194.963 80.7647 203.339 75.3972 198.879C73.3554 197.182 72.9872 194.377 72.4747 191.922C72.2202 190.7 70.1776 190.652 69.9575 191.922C69.6819 193.516 69.4274 195.076 68.8153 196.587C68.6379 197.491 68.2368 198.274 67.6134 198.941C66.2945 201.283 64.0823 201.428 60.9957 199.42C35.7814 169.423 24.8424 75.1724 80.1161 69.8779C135.949 64.5293 121.487 168.751 110.157 198.243ZM191.459 144.525C175.834 165.185 145.593 179.177 119.739 178.121C124.44 157.366 125.01 135.584 122 114.533C133.483 100.27 131.043 81.3603 140.213 66.1357C156.544 39.0226 195.924 46.819 206.108 74.5855C214.316 96.9671 205.291 126.237 191.459 144.525Z" fill="black"/>
<path d="M175.643 69.4452C175.618 68.7462 174.728 68.4376 174.273 68.8001C174.074 68.7616 173.857 68.7539 173.622 68.7945C167.279 69.894 158.526 72.8165 154.458 78.2015C151.025 82.7465 151.719 89.4877 156.413 92.9374C169.045 102.219 175.947 77.743 175.643 69.4452Z" fill="black"/>
<path d="M200.146 92.2145C198.981 84.0065 194.144 76.912 187.16 72.5472C186.419 72.0844 185.734 72.3193 185.3 72.8116C185.062 72.8621 184.843 72.9953 184.701 73.2379C180.424 80.5694 176.908 90.8879 179.563 99.3819C181.386 105.214 187.364 110.185 193.728 108.092C200.211 105.96 200.965 97.9803 200.146 92.2145Z" fill="black"/>
<path d="M89.2447 85.2357C89.0182 85.1165 88.8079 85.0934 88.6088 85.106C88.0008 84.3011 86.6027 84.0374 85.851 85.1432C79.091 95.0865 73.9044 130.607 95.7769 125.905C117.017 121.341 100.821 91.3367 89.2447 85.2357Z" fill="black"/>
<path d="M74.9099 87.0342C74.79 86.2994 73.9913 86.1662 73.4444 86.4621C72.9992 86.1718 72.4312 86.0855 71.8317 86.4537C64.4259 91.0064 56.044 92.3477 52.4617 101.265C50.1219 107.091 50.8848 114.773 56.9675 117.993C72.6479 126.294 76.3473 95.8417 74.9099 87.0342Z" fill="black"/>
<path d="M79.3434 131.509C72.4974 128.906 64.4608 130.321 59.772 134.679C57.9375 135.629 56.3254 136.755 55.9917 138.535C55.6005 140.621 57.1524 142.34 59.9072 142.741C65.0874 143.495 68.5748 138.287 73.5365 138.962C77.2826 139.47 80.1349 143.928 84.4642 142.57C92.2052 140.139 83.059 132.921 79.3434 131.509Z" fill="black"/>
<path d="M162.131 120.033C165.963 122.296 173.036 120.898 175.411 117.204C175.43 117.186 175.453 117.179 175.471 117.158C176.504 115.991 176.57 114.581 175.541 113.362C174.137 111.699 171.676 111.83 169.651 112.195C168.825 112.343 168.03 112.588 167.184 112.638C164.67 112.784 163.424 110.84 162.275 109.056C161.78 108.288 161.398 107.493 160.544 106.991C159.263 106.24 157.399 106.288 156.468 107.527C153.669 111.252 158.889 118.119 162.131 120.033Z" fill="black"/>
</svg>
